<?xml version="1.0" encoding="UTF-8" standalone="no"?>
<svg width="98px" height="34px" viewBox="0 0 98 34" version="1.1" xmlns="http://www.w3.org/2000/svg" xmlns:xlink="http://www.w3.org/1999/xlink">
    <!-- Generator: Sketch 42 (36781) - http://www.bohemiancoding.com/sketch -->
    <title>apple</title>
    <desc>Created with Sketch.</desc>
    <defs></defs>
    <g id="Symbols" stroke="none" stroke-width="1" fill="none" fill-rule="evenodd">
        <g id="FOOTER" transform="translate(-809.000000, -133.000000)">
            <g id="Group-4">
                <g id="apple" transform="translate(809.000000, 133.000000)">
                    <g id="App-Store">
                        <rect id="background" fill="#000000" x="0" y="0" width="98" height="34" rx="4.47174"></rect>
                        <g id="icon" transform="translate(8.206795, 5.984000)" fill="#FFFFFF">
                            <path d="M13.2470951,10.2376876 C13.2257427,7.80564234 15.1901605,6.62244439 15.2799877,6.56735928 C14.1674557,4.90499633 12.443068,4.67786458 11.8371026,4.65975441 C10.3888231,4.50355417 8.98398465,5.54790747 8.24622357,5.54790747 C7.49373672,5.54790747 6.35764356,4.67484622 5.13319577,4.7005023 C3.55753837,4.72540379 2.08348879,5.66034146 1.27504401,7.11217364 C-0.393385745,10.0724323 0.850941829,14.4226467 2.44942417,16.8154533 C3.24903349,17.988087 4.1833836,19.2957924 5.40635881,19.2497624 C6.60282763,19.1999594 7.04975475,18.4680066 8.49361651,18.4680066 C9.92422507,18.4680066 10.3439095,19.2497624 11.5911822,19.2195788 C12.8752694,19.1999594 13.6837142,18.0431721 14.4553445,16.8599742 C15.3793866,15.5183122 15.750476,14.1940058 15.7652018,14.1260927 C15.7357502,14.116283 13.2721289,13.1526709 13.2470951,10.2376876" id="Fill-2"></path>
                            <path d="M10.8909719,3.08567856 C11.534488,2.2609111 11.9747886,1.13883498 11.8525647,0.000157866266 C10.9211597,0.0424149361 9.7563513,0.660424583 9.08559247,1.46708186 C8.49214393,2.17790615 7.96201621,3.34299393 8.09896587,4.43865938 C9.14523184,4.51864598 10.2194768,3.89761797 10.8909719,3.08567856" id="Fill-3"></path>
                        </g>
                        <g transform="translate(30.036178, 14.399246)" fill="#FFFFFF">
                            <path d="M8.74773375,10.6662423 L7.07562256,10.6662423 L6.15967966,7.71654791 L2.97596816,7.71654791 L2.10346628,10.6662423 L0.475532398,10.6662423 L3.63052864,0.624151489 L5.57874802,0.624151489 L8.74773375,10.6662423 L8.74773375,10.6662423 Z M5.88357147,6.47901944 L5.0552469,3.85757193 C4.96762857,3.5889377 4.80269994,2.95810001 4.56119731,1.96505887 L4.53174577,1.96505887 C4.43455569,2.39215711 4.27919881,3.0229948 4.06641144,3.85757193 L3.25207635,6.47901944 L5.88357147,6.47901944 L5.88357147,6.47901944 Z" id="Fill-4"></path>
                            <path d="M16.8454347,6.95667525 C16.8454347,8.188167 16.5192589,9.16158878 15.866171,9.87618602 C15.2815579,10.5123058 14.5548412,10.8299885 13.6882296,10.8299885 C12.7524069,10.8299885 12.0794392,10.4881589 11.6707991,9.80223615 L11.6707991,13.6015995 L10.101032,13.6015995 L10.101032,5.80517009 C10.101032,5.0317148 10.0811522,4.23864014 10.0428652,3.42519155 L11.4234062,3.42519155 L11.5110245,4.57367834 L11.540476,4.57367834 C12.0639772,3.708163 12.8584325,3.27578262 13.9245782,3.27578262 C14.7580568,3.27578262 15.4538495,3.61308459 16.0104836,4.28844312 C16.5663814,4.96531083 16.8454347,5.85421848 16.8454347,6.95667525 L16.8454347,6.95667525 Z M15.2462161,7.01553331 C15.2462161,6.31074575 15.0915955,5.72971104 14.7808818,5.27242918 C14.4414528,4.79628255 13.9856902,4.55707735 13.4143303,4.55707735 C13.0270425,4.55707735 12.6750966,4.68988528 12.3607014,4.95248279 C12.04557,5.21583489 11.8394092,5.56068276 11.7429554,5.98853559 C11.6943603,6.1869929 11.6700628,6.34922987 11.6700628,6.47751026 L11.6700628,7.68636429 C11.6700628,8.2115593 11.8276286,8.65601313 12.14276,9.01972576 C12.4578915,9.38192922 12.8672679,9.56378554 13.3708893,9.56378554 C13.9621289,9.56378554 14.4223093,9.32910788 14.7514302,8.86352552 C15.0812875,8.39643398 15.2462161,7.78068811 15.2462161,7.01553331 L15.2462161,7.01553331 Z" id="Fill-5"></path>
                            <path d="M24.971851,6.95667525 C24.971851,8.188167 24.6456751,9.16158878 23.9925872,9.87618602 C23.4072379,10.5123058 22.6812574,10.8299885 21.8139096,10.8299885 C20.8788232,10.8299885 20.2058555,10.4881589 19.7964791,9.80223615 L19.7964791,13.6015995 L18.226712,13.6015995 L18.226712,5.80517009 C18.226712,5.0317148 18.2068322,4.23864014 18.1685452,3.42519155 L19.5490861,3.42519155 L19.6367044,4.57367834 L19.666156,4.57367834 C20.1889208,3.708163 20.9833761,3.27578262 22.0502582,3.27578262 C22.8830005,3.27578262 23.5795294,3.61308459 24.1368998,4.28844312 C24.6920613,4.96531083 24.971851,5.85421848 24.971851,6.95667525 L24.971851,6.95667525 Z M23.371896,7.01553331 C23.371896,6.31074575 23.2165392,5.72971104 22.9058254,5.27242918 C22.5671327,4.79628255 22.1121064,4.55707735 21.5407465,4.55707735 C21.1534588,4.55707735 20.8015129,4.68988528 20.4856451,4.95248279 C20.1712499,5.21583489 19.9650891,5.56068276 19.8686353,5.98853559 C19.8207766,6.1869929 19.7950065,6.34922987 19.7950065,6.47751026 L19.7950065,7.68636429 C19.7950065,8.2115593 19.9533085,8.65601313 20.2669674,9.01972576 C20.5820989,9.38117463 20.9914753,9.56378554 21.4965692,9.56378554 C22.0885452,9.56378554 22.5487255,9.32910788 22.8771102,8.86352552 C23.2069674,8.39643398 23.371896,7.78068811 23.371896,7.01553331 L23.371896,7.01553331 Z" id="Fill-6"></path>
                            <path d="M34.0576511,7.85011044 C34.0576511,8.70430692 33.7668171,9.3992848 33.1866218,9.93579867 C32.548996,10.5213609 31.6588232,10.8148966 30.517576,10.8148966 C29.4632108,10.8148966 28.6179516,10.6066297 27.9803258,10.1893411 L28.343316,8.84843371 C29.0317458,9.26572228 29.7879141,9.47474386 30.6110846,9.47474386 C31.2030606,9.47474386 31.6632409,9.33740838 31.9916256,9.0650012 C32.3214828,8.79108483 32.4871477,8.42661761 32.4871477,7.97084492 C32.4871477,7.56261144 32.3501981,7.22002734 32.0792439,6.94158344 C31.8075534,6.66464871 31.3584174,6.40506957 30.7281545,6.16812814 C29.0126023,5.51238897 28.1540899,4.55254981 28.1540899,3.29162903 C28.1540899,2.46761616 28.4574407,1.79301223 29.0619336,1.26555344 C29.6671628,0.738849251 30.4697172,0.475497154 31.4681244,0.475497154 C32.3597698,0.475497154 33.1026849,0.634715757 33.692452,0.952398371 L33.2985377,2.26387672 C32.7433761,1.95600378 32.1167946,1.80206731 31.4158479,1.80206731 C30.862159,1.80206731 30.4270125,1.94166656 30.117035,2.21935588 C29.8556526,2.46761616 29.7223844,2.77020697 29.7223844,3.12939206 C29.7223844,3.52555209 29.8733235,3.85455356 30.1744655,4.11186893 C30.4351117,4.35031954 30.910754,4.6091441 31.5984475,4.88683341 C32.4422341,5.23545424 33.0614528,5.64142395 33.4590486,6.1077609 C33.8588532,6.57409785 34.0576511,7.15588715 34.0576511,7.85011044" id="Fill-7"></path>
                            <path d="M39.261002,4.6325364 L37.530724,4.6325364 L37.530724,8.1481737 C37.530724,9.04236348 37.8355474,9.48832649 38.4466669,9.48832649 C38.7271928,9.48832649 38.95986,9.46417959 39.1439321,9.41362202 L39.1873731,10.6353041 C38.8781319,10.7537748 38.4709644,10.8133875 37.9673431,10.8133875 C37.3466519,10.8133875 36.8629103,10.6187031 36.512437,10.2315982 C36.1634362,9.84373863 35.9889359,9.19403618 35.9889359,8.27947245 L35.9889359,4.62951804 L34.9588682,4.62951804 L34.9588682,3.42217319 L35.9889359,3.42217319 L35.9889359,2.09635762 L37.530724,1.6194564 L37.530724,3.42217319 L39.261002,3.42217319 L39.261002,4.6325364" id="Fill-8"></path>
                            <path d="M47.0524069,6.98610428 C47.0524069,8.09912531 46.7424295,9.01293445 46.1217383,9.72753168 C45.4730681,10.4625029 44.610138,10.8299885 43.5344205,10.8299885 C42.4962537,10.8299885 41.6708742,10.4775947 41.0553371,9.77280712 C40.4397999,9.06801956 40.1320313,8.17911191 40.1320313,7.10683876 C40.1320313,5.98476264 40.4508442,5.06567137 41.0840523,4.35107413 C41.718733,3.6364769 42.5743002,3.2780464 43.6500177,3.2780464 C44.6874483,3.2780464 45.5194543,3.63194936 46.1504535,4.33598232 C46.7527375,5.02039594 47.0524069,5.90251227 47.0524069,6.98610428 L47.0524069,6.98610428 Z M45.4252093,7.02307921 C45.4252093,6.35979413 45.2853145,5.79083287 45.0047886,5.31468625 C44.6756676,4.73968826 44.2037067,4.45294386 43.5940598,4.45294386 C42.9660057,4.45294386 42.4822642,4.73968826 42.1546158,5.31468625 C41.8726173,5.79083287 41.7334588,6.36960381 41.7334588,7.05326283 C41.7334588,7.7173025 41.8726173,8.28777295 42.1546158,8.7616558 C42.4940448,9.33740838 42.9674783,9.62490737 43.5815429,9.62490737 C44.1808818,9.62490737 44.6513701,9.33061706 44.9922717,8.74807317 C45.2801605,8.26060769 45.4252093,7.68787347 45.4252093,7.02307921 L45.4252093,7.02307921 Z" id="Fill-9"></path>
                            <path d="M52.1570951,4.8400488 C52.0017383,4.81061977 51.8353371,4.79628255 51.6623093,4.79628255 C51.1100929,4.79628255 50.6830455,5.00832249 50.3826398,5.43692991 C50.1212574,5.81422518 49.9909344,6.2911264 49.9909344,6.86687897 L49.9909344,10.6662423 L48.4211673,10.6662423 L48.4211673,5.70556414 C48.4211673,4.8717416 48.4057052,4.11035975 48.3755174,3.42594614 L49.7428051,3.42594614 L49.8002356,4.81137436 L49.8436766,4.81137436 C50.0100779,4.33522773 50.270724,3.95114115 50.6285602,3.66439675 C50.9790335,3.40481761 51.3560132,3.27578262 51.7631808,3.27578262 C51.9082296,3.27578262 52.039289,3.28710148 52.1556226,3.30521165 L52.1570951,4.8400488" id="Fill-10"></path>
                            <path d="M59.177606,6.70313283 C59.177606,6.99138641 59.1591988,7.23436456 59.1201755,7.43282187 L54.4116105,7.43282187 C54.4285452,8.1481737 54.6575309,8.69600643 55.09415,9.07330169 C55.4910095,9.40984907 56.0049389,9.57887735 56.6344655,9.57887735 C57.3317307,9.57887735 57.967884,9.46568877 58.5399802,9.23629325 L58.7859005,10.3530872 C58.1173506,10.6511505 57.327313,10.8005594 56.4172604,10.8005594 C55.3216631,10.8005594 54.4616782,10.4700488 53.8358329,9.81053664 C53.2121966,9.15026993 52.8985377,8.26211687 52.8985377,7.1513596 C52.8985377,6.06022169 53.1886353,5.1509401 53.7717758,4.4257786 C54.3814227,3.65156871 55.2053295,3.26446377 56.2420238,3.26446377 C57.2603108,3.26446377 58.0312048,3.65156871 58.5539697,4.4257786 C58.9692364,5.0392607 59.177606,5.79988796 59.177606,6.70313283 L59.177606,6.70313283 Z M57.6807315,6.28584426 C57.6917758,5.80818845 57.5886954,5.3976912 57.3759081,5.04907038 C57.1042176,4.6008436 56.6860057,4.3774848 56.1256902,4.3774848 C55.6117608,4.3774848 55.1942852,4.59556147 54.8762086,5.03322398 C54.6148262,5.38109021 54.4594693,5.79988796 54.4116105,6.28433508 L57.6807315,6.28584426 L57.6807315,6.28584426 Z" id="Fill-11"></path>
                        </g>
                        <g id="Available-on-the" transform="translate(30.633335, 5.763246)" fill="#FFFFFF">
                            <path d="M4.52951048,5.66603678 L3.70707622,5.66603678 L3.25720395,4.21646836 L1.69259088,4.21646836 L1.26333468,5.66603678 L0.462989072,5.66603678 L2.01361266,0.7302601 L2.97078772,0.7302601 L4.52951048,5.66603678 L4.52951048,5.66603678 Z M3.12172686,3.60826839 L2.71455932,2.31942776 C2.67185459,2.18737442 2.59307172,1.88025607 2.47158411,1.38977223 L2.45685834,1.38977223 C2.40679073,1.60181217 2.33537074,1.9096851 2.22787262,2.31942776 L1.82806796,3.60826839 L3.12172686,3.60826839 L3.12172686,3.60826839 Z" id="Fill-12"></path>
                            <path d="M8.40680575,2.10738782 L7.09179448,5.66603678 L6.3415165,5.66603678 L5.06920996,2.10738782 L5.89827082,2.10738782 L6.49171935,3.98933661 C6.59185459,4.30400087 6.67726405,4.6043279 6.74132115,4.88956312 L6.76267352,4.88956312 C6.82010402,4.63375693 6.90551349,4.3334299 7.01227532,3.98933661 L7.59836097,2.10738782 L8.40680575,2.10738782" id="Fill-13"></path>
                            <path d="M11.2061746,5.66603678 L11.1487441,5.25629412 L11.1273918,5.25629412 C10.8917795,5.58605018 10.548669,5.74677797 10.1127862,5.74677797 C9.49135872,5.74677797 9.04811304,5.30006037 9.04811304,4.69940631 C9.04811304,3.82106292 9.79102814,3.36679942 11.0773242,3.36679942 L11.0773242,3.30115005 C11.0773242,2.83254933 10.834349,2.59787167 10.3557614,2.59787167 C10.012651,2.59787167 9.71224527,2.68615876 9.44865399,2.86197836 L9.29182453,2.34206548 C9.61358261,2.13681685 10.0133873,2.03419254 10.4853482,2.03419254 C11.3924556,2.03419254 11.8504271,2.52467639 11.8504271,3.50639867 L11.8504271,4.81712243 C11.8504271,5.17630752 11.8651529,5.45475143 11.9004947,5.66679137 L11.2061746,5.66603678 L11.2061746,5.66603678 Z M11.0986765,3.89350362 C10.2409004,3.89350362 9.81238051,4.10629815 9.81238051,4.61111921 C9.81238051,4.98464153 10.0340033,5.16725244 10.3410357,5.16725244 C10.7342137,5.16725244 11.0986765,4.86013409 11.0986765,4.44284552 L11.0986765,3.89350362 L11.0986765,3.89350362 Z" id="Fill-14"></path>
                            <path d="M13.5689245,1.52107098 C13.3119598,1.52107098 13.1116893,1.31582235 13.1116893,1.04492435 C13.1116893,0.77402635 13.3185864,0.576323631 13.5836502,0.576323631 C13.8479778,0.576323631 14.0622378,0.77402635 14.0548749,1.04492435 C14.0548749,1.33091416 13.8553407,1.52107098 13.5689245,1.52107098 L13.5689245,1.52107098 Z M13.1978351,2.10738782 L13.9694654,2.10738782 L13.9694654,5.66603678 L13.1978351,5.66603678 L13.1978351,2.10738782 Z" id="Fill-15"></path>
                            <polygon id="Fill-16" points="15.3404346 0.474453909 16.112065 0.474453909 16.112065 5.66603678 15.3404346 5.66603678"></polygon>
                            <path d="M19.391494,5.66603678 L19.3333272,5.25629412 L19.3127111,5.25629412 C19.0770988,5.58605018 18.7339883,5.74677797 18.2981055,5.74677797 C17.676678,5.74677797 17.2334323,5.30006037 17.2334323,4.69940631 C17.2334323,3.82106292 17.9763474,3.36679942 19.2626435,3.36679942 L19.2626435,3.30115005 C19.2626435,2.83254933 19.0196683,2.59787167 18.5410807,2.59787167 C18.1979703,2.59787167 17.8975646,2.68615876 17.6339733,2.86197836 L17.4764076,2.34131089 C17.7981656,2.13606226 18.1979703,2.03343795 18.6699312,2.03343795 C19.5770387,2.03343795 20.0357464,2.5239218 20.0357464,3.50564408 L20.0357464,4.81636784 C20.0357464,5.17555293 20.0504722,5.45399684 20.0843414,5.66603678 L19.391494,5.66603678 L19.391494,5.66603678 Z M19.2839958,3.89350362 C18.4262197,3.89350362 17.9976998,4.10629815 17.9976998,4.61111921 C17.9976998,4.98464153 18.2193227,5.16725244 18.526355,5.16725244 C18.919533,5.16725244 19.2839958,4.86013409 19.2839958,4.44284552 L19.2839958,3.89350362 L19.2839958,3.89350362 Z" id="Fill-17"></path>
                            <path d="M23.1612911,5.74677797 C22.6687141,5.74677797 22.3049876,5.53398344 22.068639,5.11669487 L22.0539132,5.11669487 L22.0097359,5.66603678 L21.3529665,5.66603678 C21.3735826,5.38080156 21.3809455,5.05783681 21.3809455,4.70695221 L21.3809455,0.474453909 L22.1540484,0.474453909 L22.1540484,2.62805529 L22.1680379,2.62805529 C22.3970236,2.23264985 22.768113,2.03494713 23.2754158,2.03494713 C24.1118396,2.03494713 24.6979252,2.76765454 24.6979252,3.83615474 C24.6979252,4.94087528 24.0470462,5.74677797 23.1612911,5.74677797 L23.1612911,5.74677797 Z M23.0044616,2.65597514 C22.5604797,2.65597514 22.1540484,3.05138058 22.1540484,3.60072249 L22.1540484,4.22325968 C22.1540484,4.71374353 22.5192475,5.11669487 22.9904722,5.11669487 C23.5684586,5.11669487 23.9130417,4.63375693 23.9130417,3.86482918 C23.9123054,3.14721358 23.5544692,2.65597514 23.0044616,2.65597514 L23.0044616,2.65597514 Z" id="Fill-18"></path>
                            <polygon id="Fill-19" points="25.8399087 0.474453909 26.6108027 0.474453909 26.6108027 5.66603678 25.8399087 5.66603678"></polygon>
                            <path d="M30.8105924,4.07686912 L28.4942287,4.07686912 C28.5096908,4.75071846 28.944101,5.13103209 29.5868809,5.13103209 C29.9307276,5.13103209 30.2451228,5.07217403 30.5234399,4.9627584 L30.6434549,5.51210031 C30.3150702,5.65849087 29.929255,5.73168616 29.4793828,5.73168616 C28.3926209,5.73168616 27.7498411,5.02840778 27.7498411,3.93802446 C27.7498411,2.84688655 28.408083,2.02664664 29.393237,2.02664664 C30.2782558,2.02664664 30.8370988,2.70049598 30.8370988,3.71843861 C30.8393076,3.85728327 30.832681,3.98179071 30.8105924,4.07686912 L30.8105924,4.07686912 Z M30.1037554,3.51318999 C30.1037554,2.96384808 29.8313287,2.57598854 29.3380154,2.57598854 C28.8947697,2.57598854 28.5457689,2.97139398 28.4942287,3.51318999 L30.1037554,3.51318999 L30.1037554,3.51318999 Z" id="Fill-20"></path>
                            <path d="M35.487497,5.74677797 C34.4728914,5.74677797 33.8153858,4.97030431 33.8153858,3.91614133 C33.8153858,2.81745751 34.4868809,2.03419254 35.5456638,2.03419254 C36.5448073,2.03419254 37.2177749,2.77369126 37.2177749,3.85803786 C37.2177749,4.97030431 36.5241912,5.74677797 35.487497,5.74677797 L35.487497,5.74677797 Z M35.5169485,2.61220889 C34.9595781,2.61220889 34.6024782,3.14645899 34.6024782,3.89350362 C34.6024782,4.62621102 34.966941,5.16046112 35.5095856,5.16046112 C36.0522302,5.16046112 36.4166931,4.58923609 36.4166931,3.87841181 C36.4166931,3.15400489 36.0595931,2.61220889 35.5169485,2.61220889 L35.5169485,2.61220889 Z" id="Fill-21"></path>
                            <path d="M41.3660244,5.66603678 L40.5958666,5.66603678 L40.5958666,3.62260561 C40.5958666,2.99327711 40.359518,2.67785827 39.89492,2.67785827 C39.4376848,2.67785827 39.1225533,3.08080961 39.1225533,3.54941033 L39.1225533,5.66603678 L38.3523955,5.66603678 L38.3523955,3.12457586 C38.3523955,2.80991161 38.3435601,2.47260964 38.322944,2.10663323 L39.001802,2.10663323 L39.0378801,2.65597514 L39.0599688,2.65597514 C39.2653933,2.27566151 39.6880229,2.03343795 40.1599838,2.03343795 C40.8874369,2.03343795 41.3660244,2.60466298 41.3660244,3.53431852 L41.3660244,5.66603678" id="Fill-22"></path>
                            <path d="M46.4147547,2.70049598 L45.565814,2.70049598 L45.565814,4.4285083 C45.565814,4.86843458 45.7152806,5.08802043 46.01495,5.08802043 C46.1504271,5.08802043 46.2660244,5.07292862 46.3580604,5.05104549 L46.3794128,5.65169956 C46.22921,5.71055762 46.0282032,5.73998665 45.780074,5.73998665 C45.1711634,5.73998665 44.8089094,5.39589337 44.8089094,4.49491227 L44.8089094,2.70049598 L44.3030792,2.70049598 L44.3030792,2.10738782 L44.8089094,2.10738782 L44.8089094,1.4554216 L45.565814,1.22074395 L45.565814,2.10663323 L46.4147547,2.10663323 L46.4147547,2.70049598" id="Fill-23"></path>
                            <path d="M50.5011559,5.66603678 L49.7287892,5.66603678 L49.7287892,3.63769742 C49.7287892,3.00082301 49.4924406,2.67861286 49.0285789,2.67861286 C48.6287742,2.67861286 48.2576848,2.95705676 48.2576848,3.52073589 L48.2576848,5.66603678 L47.4853181,5.66603678 L47.4853181,0.474453909 L48.2576848,0.474453909 L48.2576848,2.61220889 L48.2724106,2.61220889 C48.5146495,2.22434936 48.8658591,2.03343795 49.3157314,2.03343795 C50.0512836,2.03343795 50.5011559,2.6190002 50.5011559,3.54941033 L50.5011559,5.66603678" id="Fill-24"></path>
                            <path d="M54.4439808,4.07686912 L52.1283535,4.07686912 C52.1430792,4.75071846 52.5774894,5.13103209 53.2210056,5.13103209 C53.5655886,5.13103209 53.8792475,5.07217403 54.156092,4.9627584 L54.2768433,5.51210031 C53.9491949,5.65849087 53.5626435,5.73168616 53.1120349,5.73168616 C52.0260094,5.73168616 51.3832295,5.02840778 51.3832295,3.93802446 C51.3832295,2.84688655 52.0407351,2.02664664 53.0258891,2.02664664 C53.9116442,2.02664664 54.4697509,2.70049598 54.4697509,3.71843861 C54.4726961,3.85728327 54.4653332,3.98179071 54.4439808,4.07686912 L54.4439808,4.07686912 Z M53.7364076,3.51318999 C53.7364076,2.96384808 53.4654534,2.57598854 52.9721401,2.57598854 C52.5288944,2.57598854 52.1791574,2.97139398 52.1283535,3.51318999 L53.7364076,3.51318999 L53.7364076,3.51318999 Z" id="Fill-25"></path>
                        </g>
                    </g>
                </g>
            </g>
        </g>
    </g>
</svg>