<?xml version="1.0" encoding="UTF-8" standalone="no"?>
<svg width="98px" height="34px" viewBox="0 0 98 34" version="1.1" xmlns="http://www.w3.org/2000/svg" xmlns:xlink="http://www.w3.org/1999/xlink">
    <!-- Generator: Sketch 42 (36781) - http://www.bohemiancoding.com/sketch -->
    <title>google</title>
    <desc>Created with Sketch.</desc>
    <defs>
        <linearGradient x1="58.9170878%" y1="9.59026547%" x2="90.8103723%" y2="60.8514694%" id="linearGradient-1">
            <stop stop-color="#FF177B" offset="0%"></stop>
            <stop stop-color="#FFEC73" offset="100%"></stop>
        </linearGradient>
        <linearGradient x1="37.1029741%" y1="-44.0352456%" x2="0%" y2="101.060094%" id="linearGradient-2">
            <stop stop-color="#064AA2" offset="0%"></stop>
            <stop stop-color="#63FFD4" offset="100%"></stop>
        </linearGradient>
        <path d="M9.22274882,8.636 L0.331753555,0 C0.124326804,0.049380706 0,0.208394839 0,0.476 L0,8.636 L0,17 C0,17.227043 0.0893061708,17.362128 0.199052133,17.408 L9.22274882,8.636 Z" id="path-3"></path>
        <path d="M0.367209421,9.18214707 L5.50620982,6.2889434 C6.77170192,5.57028566 7.776028,4.99993595 7.776028,4.99993595 L11.5131885,2.93699128 L9.02515836,0.459295233 L0.0015669751,9.23238679 C0.102143236,9.26553751 0.27941187,9.24741727 0.41770974,9.17746325" id="path-5"></path>
        <linearGradient x1="78.6453125%" y1="50%" x2="2.49516972%" y2="100%" id="linearGradient-7">
            <stop stop-color="#FF4521" offset="0%"></stop>
            <stop stop-color="#8A33DB" offset="100%"></stop>
        </linearGradient>
        <linearGradient x1="0%" y1="-24.1863374%" x2="64.2244373%" y2="100%" id="linearGradient-8">
            <stop stop-color="#00A3B5" offset="0%"></stop>
            <stop stop-color="#D6FFA1" offset="100%"></stop>
        </linearGradient>
        <path d="M0.958164314,0.570741073 C0.787005145,0.476793831 0.616945354,0.449918898 0.479378319,0.487902372 L9.37775523,9.13646505 L11.8395447,6.74889068 L8.12875041,4.64228758 C8.12875041,4.64228758 4.6312065,2.65631799 2.51936894,1.45715028 L0.958164314,0.570741073 Z" id="path-9"></path>
    </defs>
    <g id="Symbols" stroke="none" stroke-width="1" fill="none" fill-rule="evenodd">
        <g id="FOOTER" transform="translate(-808.000000, -90.000000)">
            <g id="Group-4">
                <g id="google" transform="translate(808.000000, 90.000000)">
                    <g id="Play-Store">
                        <rect id="background" fill="#000000" x="0" y="0" width="98" height="34" rx="4.47174"></rect>
                        <g id="icon" transform="translate(3.495894, 11.679246)">
                            <path d="M8.45912739,4.64228758 C8.45912739,4.64228758 1.69763205,0.802986491 1.30051891,0.577424166 C0.902745022,0.35186184 0.506953396,0.488689437 0.506953396,0.960135019 L0.506953396,9.15624355 L0.506953396,17.5189837 C0.506953396,17.8718905 0.789756094,18.0249749 1.13533042,17.8292166 C1.48024399,17.6334583 8.45912739,13.6701995 8.45912739,13.6701995 C8.45912739,13.6701995 9.40719656,13.1321575 9.88123114,12.8631365 C10.644128,12.4301823 12.1699217,11.5642738 12.1699217,11.5642738 C12.1699217,11.5642738 15.3184143,9.77603192 15.7373323,9.5389544 C16.1555896,9.30119951 16.1152836,8.97538727 15.762441,8.78775734 C15.4089376,8.60080479 12.1699217,6.74889068 12.1699217,6.74889068 L8.45912739,4.64228758 Z" id="orange" fill="url(#linearGradient-1)"></path>
                            <g id="blue" transform="translate(0.485149, 0.492754)">
                                <mask id="mask-4" fill="white">
                                    <use xlink:href="#path-3"></use>
                                </mask>
                                <use id="Clip-2" fill="url(#linearGradient-2)" xlink:href="#path-3"></use>
                                <path d="M11.6777251,6.256 L7.96208531,4.148 C7.94907269,4.17867426 1.19021429,0.33232159 0.796208531,0.136 C0.39563727,-0.119631634 0,0.0174472717 0,0.476 L0,8.704 C0,8.70092094 0,16.7247872 0,17.068 C0,17.4325758 0.282692407,17.5859413 0.597156398,17.408 C0.972911016,17.1937056 7.94907269,13.2231676 7.96208531,13.192 L11.6777251,11.084 C11.6584198,11.113374 14.8056845,9.32184766 15.1943128,9.112 C15.6425333,8.84614314 15.6022431,8.51973248 15.2606635,8.364 C14.8961725,8.14446201 11.6584198,6.28914652 11.6777251,6.256" id="Fill-1" mask="url(#mask-4)"></path>
                            </g>
                            <g id="red" transform="translate(0.683099, 8.670264)">
                                <mask id="mask-6" fill="white">
                                    <use xlink:href="#path-5"></use>
                                </mask>
                                <g id="Clip-8"></g>
                                <path d="M7.76413443,-4.02950994 C7.75112182,-3.99883569 0.992263415,-7.84518835 0.598257655,-8.04150994 C0.197686394,-8.29714158 -0.197950876,-8.16006267 -0.197950876,-7.70150994 L-0.197950876,0.526490057 C-0.197950876,0.523410993 -0.197950876,8.54727725 -0.197950876,8.89049006 C-0.197950876,9.25506586 0.0847415305,9.40843137 0.399205522,9.23049006 C0.77496014,9.01619568 7.75112182,5.04565767 7.76413443,5.01449006 L11.4797742,2.90649006 C11.4604689,2.93586402 14.6077337,1.14433772 14.9963619,0.934490057 C15.4445825,0.668633201 15.4042922,0.342222539 15.0627126,0.186490057 C14.6982217,-0.0330479316 11.4604689,-1.88836342 11.4797742,-1.92150994 L7.76413443,-4.02950994 Z" id="Fill-7" fill="url(#linearGradient-7)" mask="url(#mask-6)"></path>
                            </g>
                            <g id="green" transform="translate(0.330377, 0.000000)">
                                <mask id="mask-10" fill="white">
                                    <use xlink:href="#path-9"></use>
                                </mask>
                                <use id="Clip-5" fill="url(#linearGradient-8)" xlink:href="#path-9"></use>
                                <path d="M11.8324966,6.74875362 L8.11685684,4.64075362 C8.10384423,4.67142788 1.34498582,0.825075213 0.950980062,0.628753623 C0.550408801,0.373121989 0.154771531,0.510200895 0.154771531,0.968753623 L0.154771531,9.19675362 C0.154771531,9.19367456 0.154771531,17.2175408 0.154771531,17.5607536 C0.154771531,17.9253294 0.437463938,18.0786949 0.751927929,17.9007536 C1.12768255,17.6864593 8.10384423,13.7159212 8.11685684,13.6847536 L11.8324966,11.5767536 C11.8131913,11.6061276 14.9604561,9.81460129 15.3490843,9.60475362 C15.7973049,9.33889677 15.7570146,9.0124861 15.415435,8.85675362 C15.0509441,8.63721563 11.8131913,6.78190015 11.8324966,6.74875362" id="Fill-4" mask="url(#mask-10)"></path>
                            </g>
                        </g>
                        <g id="Google-play" transform="translate(23.023697, 13.668000)" fill="#FFFFFF">
                            <path d="M44.0976956,10.0551465 L43.362948,10.7698651 C43.1931457,10.8660681 43.0242539,10.9777576 42.8558173,11.0570665 C42.3454999,11.2959317 41.8265332,11.356 41.3653811,11.356 C40.8746389,11.356 40.1052934,11.3231502 39.32047,10.7379538 C38.2301845,9.94627272 37.7535545,8.58535092 37.7535545,7.39947181 C37.7535545,4.94418116 39.6923961,3.74 41.2738791,3.74 C41.8265332,3.74 42.39421,3.88266215 42.8558173,4.1834728 C43.6233418,4.70672377 43.8218238,5.38671539 43.9319905,5.75087929 L40.3206191,7.25493253 L39.1379211,7.34972777 C39.5207729,9.36295348 40.841862,10.5338155 42.3017975,10.5338155 C43.0310824,10.5338155 43.5723556,10.2883803 44.0690159,10.0354366 C44.0690159,10.0354366 44.1687121,9.98193826 44.0976956,10.0551465 L44.0976956,10.0551465 Z M41.8911514,6.01647244 C42.1809857,5.90592126 42.3317536,5.81048819 42.3317536,5.58844094 C42.3317536,4.95159055 41.6454223,4.216 40.8263254,4.216 C40.2196536,4.216 39.0805687,4.71206299 39.0805687,6.43458268 C39.0805687,6.70340157 39.1111723,6.98970079 39.1264742,7.276 L41.8911514,6.01647244 L41.8911514,6.01647244 Z" id="Fill-1"></path>
                            <path d="M36.5609749,9.96901352 C36.5609749,10.5827433 36.6671509,10.6782436 37.1703526,10.7264619 C37.4326164,10.7582954 37.6939728,10.7723395 37.9526066,10.8041729 L37.3863346,11.152 L34.6879211,11.152 C35.0418411,10.6782436 35.1026428,10.6309616 35.1026428,10.3154362 L35.1026428,9.96292771 L35.0967441,0.570192931 L33.9052133,0.570192931 L35.0522772,0 L37.2420441,0 C36.7674282,0.283692049 36.6254065,0.456435228 36.5646048,1.00930703 L36.5609749,9.96901352" id="Fill-2"></path>
                            <path d="M32.3744436,4.51504768 C32.7255186,4.81320946 33.4580196,5.44604262 33.4580196,6.64617889 C33.4580196,7.81589049 32.8197426,8.36727915 32.1760296,8.88917928 C31.9785216,9.09466283 31.7474916,9.31746504 31.7474916,9.66196593 C31.7474916,10.0116156 31.9785216,10.2011847 32.1447726,10.3425424 L32.6969796,10.7829981 C33.3683256,11.368556 33.9803285,11.9054344 33.9803285,12.9960418 C33.9803285,14.481702 32.5887126,15.98 29.9590477,15.98 C27.7438777,15.98 26.6729858,14.8898606 26.6729858,13.7210852 C26.6729858,13.1523778 26.9470508,12.3468262 27.8512387,11.7949694 C28.7989147,11.1963055 30.0827167,11.1162652 30.7703706,11.069458 C30.5556487,10.7829981 30.3105757,10.482964 30.3105757,9.99336082 C30.3105757,9.72562371 30.3884917,9.5660112 30.4636897,9.37784631 C30.2965327,9.39422882 30.1280167,9.41107941 29.9749027,9.41107941 C28.3536157,9.41107941 27.4371968,8.16132753 27.4371968,6.92983044 C27.4371968,6.2033829 27.7579207,5.39736315 28.4165827,4.81320946 C29.2881547,4.07178362 30.3273367,3.944 31.1531556,3.944 L34.3033175,3.944 L33.3239316,4.51504768 L32.3744436,4.51504768 L32.3744436,4.51504768 Z M31.2989644,11.5091547 C31.1724676,11.492 31.0966608,11.492 30.9441339,11.492 C30.8043937,11.492 29.9718893,11.5234502 29.3270751,11.7493199 C28.9859447,11.8794094 28,12.2639597 28,13.4061741 C28,14.5460059 29.0644914,15.368 30.7112336,15.368 C32.1908356,15.368 32.9763033,14.6279671 32.9763033,13.6315672 C32.9763033,12.8114792 32.4680326,12.3788006 31.2989644,11.5091547 L31.2989644,11.5091547 Z M31.7312464,8.4670393 C32.0830721,8.10353837 32.1137441,7.60144978 32.1137441,7.31634186 C32.1137441,6.18384279 31.4610624,4.42 30.1958432,4.42 C29.801167,4.42 29.3735635,4.62484841 29.130894,4.94168684 C28.8733395,5.26972427 28.7962085,5.69528634 28.7962085,6.10451653 C28.7962085,7.15908921 29.3907037,8.908 30.6983224,8.908 C31.0799179,8.908 31.4903812,8.71621709 31.7312464,8.4670393 L31.7312464,8.4670393 Z" id="Fill-3"></path>
                            <path d="M22.8469957,11.356 C20.4118993,11.356 19.1090047,9.38731184 19.1090047,7.60479361 C19.1090047,5.52204691 20.7469294,3.74 23.0767046,3.74 C25.328851,3.74 26.7393365,5.57059249 26.7393365,7.49262034 C26.7393365,9.36987314 25.3451939,11.356 22.8469957,11.356 L22.8469957,11.356 Z M24.7513661,10.0684468 C25.1230759,9.55797659 25.2132701,8.9208341 25.2132701,8.29976197 C25.2132701,6.89502348 24.5682444,4.216 22.6618654,4.216 C22.1548642,4.216 21.6442188,4.42160607 21.2761533,4.75719299 C20.6757691,5.31540166 20.5687204,6.01682559 20.5687204,6.70501511 C20.5687204,8.28085566 21.3194283,10.88 23.1825323,10.88 C23.7838275,10.88 24.3974219,10.5779718 24.7513661,10.0684468 L24.7513661,10.0684468 Z" id="Fill-4"></path>
                            <path d="M14.685599,11.356 C12.2490339,11.356 10.9478673,9.38731184 10.9478673,7.60479361 C10.9478673,5.52204691 12.5869285,3.74 14.9167661,3.74 C17.1684883,3.74 18.5781991,5.57059249 18.5781991,7.49262034 C18.5781991,9.36987314 17.1852922,11.356 14.685599,11.356 L14.685599,11.356 Z M16.5909136,10.0684468 C16.9600712,9.55797659 17.0521327,8.9208341 17.0521327,8.29976197 C17.0521327,6.89502348 16.4049675,4.216 14.4994761,4.216 C13.9904032,4.216 13.4849763,4.42160607 13.1158187,4.75719299 C12.5142285,5.31540166 12.4075829,6.01682559 12.4075829,6.70501511 C12.4075829,8.28085566 13.1618494,10.88 15.0226773,10.88 C15.6229002,10.88 16.2358842,10.5779718 16.5909136,10.0684468 L16.5909136,10.0684468 Z" id="Fill-5"></path>
                            <path d="M9.93767672,10.8854678 L7.87509703,11.3726517 C7.03939664,11.5085553 6.28895319,11.628 5.49428555,11.628 C1.51593224,11.628 0,8.60755397 0,6.24358352 C0,3.35668983 2.14783663,0.68 5.82619492,0.68 C6.60444946,0.68 7.35306923,0.798033933 8.03512476,0.989897857 C9.11610983,1.3030875 9.62172452,1.68916662 9.93767672,1.91535913 L8.73952034,3.0891149 L8.23436157,3.20573807 L8.59453795,2.61368738 C8.10670412,2.12227121 7.20991052,1.21514986 5.50796313,1.21514986 C3.23246905,1.21514986 1.51593224,2.99929625 1.51593224,5.60403711 C1.51593224,8.40158241 3.47593005,11.0331278 6.6194948,11.0331278 C7.54318765,11.0331278 8.01871166,10.8417341 8.4504674,10.6630373 L8.4504674,8.26473828 L6.27254009,8.38559375 L7.42692819,7.74604733 L10.4834123,7.74604733 L10.1095584,8.1170783 C10.0088002,8.20548619 9.99512257,8.23558249 9.96685556,8.35408668 C9.95181022,8.48952004 9.93767672,8.92027336 9.93767672,9.07169537 L9.93767672,10.8854678" id="Fill-6"></path>
                            <path d="M48.5489753,10.1279046 L48.5489753,14.144 L47.7725118,14.144 L47.7725118,3.9245675 L48.5489753,3.9245675 L48.5489753,5.08851091 C49.054791,4.33622312 49.9790872,3.74 51.0525809,3.74 C52.9780465,3.74 54.2748815,5.24037025 54.2748815,7.61545028 C54.2748815,9.97464349 52.9780465,11.5063201 51.0525809,11.5063201 C50.0391301,11.5063201 49.1312092,10.969439 48.5489753,10.1279046 L48.5489753,10.1279046 Z M53.478673,7.6766811 C53.478673,5.8677314 52.5669029,4.488 50.9501889,4.488 C49.9461917,4.488 48.9860253,5.30393972 48.5687204,6.01552604 L48.5687204,9.3213096 C48.9860253,10.0343125 49.9461917,10.88 50.9501889,10.88 C52.5669029,10.88 53.478673,9.48846391 53.478673,7.6766811 L53.478673,7.6766811 Z" id="Fill-7"></path>
                            <polygon id="Fill-8" points="55.3364929 1.088 56.1327014 1.088 56.1327014 11.356 55.3364929 11.356"></polygon>
                            <path d="M64.7890322,13.4368745 C64.9550715,13.5130549 65.2384754,13.5597914 65.4181617,13.5597914 C65.8930795,13.5597914 66.2237932,13.3602268 66.5208443,12.6554412 L67.0871973,11.3370061 L64.028436,3.876 L64.8945695,3.876 L67.5184444,10.3415198 L70.1168448,3.876 L70.9952607,3.876 L67.2646091,12.902677 C66.8774875,13.8327322 66.2683736,14.28 65.4318088,14.28 C65.1807029,14.28 64.8495342,14.2341983 64.6557459,14.1729735 L64.7890322,13.4368745" id="Fill-9"></path>
                            <path d="M62.5977488,11.3458688 C62.545595,11.0879074 62.5062509,10.8604878 62.4774291,10.6706583 C62.4536397,10.4812986 62.439915,10.28771 62.439915,10.0908323 C62.1722837,10.4944551 61.7930251,10.8304158 61.3085439,11.0949555 C60.8236052,11.3613747 60.3629134,11.492 59.7311207,11.492 C58.9703159,11.492 58.3796972,11.2998211 57.9583495,10.9098247 C57.5383743,10.5202982 57.3270142,9.99262844 57.3270142,9.32493587 C57.3270142,8.65818305 57.6330746,8.1168869 58.2433654,7.7029269 C58.8536561,7.2870874 59.6423677,7.08034234 60.61865,7.08034234 L62.439915,7.08034234 L62.439915,6.15609795 C62.439915,5.62372942 62.2633241,5.20507068 61.9105998,4.90153134 C61.5565031,4.59752212 61.0596697,4.44387295 60.4155247,4.44387295 C59.8267359,4.44387295 59.3491171,4.58436562 58.985413,4.85783295 C58.6249115,5.13693878 58.4432882,5.48276688 58.4432882,5.89954613 L57.6440543,5.89954613 L57.6275847,5.85960674 C57.5987629,5.29763608 57.8490095,4.80473706 58.3810696,4.37903019 C58.9108423,3.95379319 59.6048536,3.74 60.4589862,3.74 C61.3103738,3.74 61.9993528,3.95050406 62.5186032,4.37057243 C63.0373961,4.78641193 63.2977075,5.38738223 63.2977075,6.17301346 L63.2977075,9.84273827 C63.2977075,10.1063382 63.3100597,10.3610105 63.342084,10.6091046 C63.3750232,10.8576686 63.4276345,11.1057626 63.4976303,11.3458688 L62.5977488,11.3458688 L62.5977488,11.3458688 Z M59.8250721,10.812 C60.487865,10.812 60.9641616,10.6589764 61.4509716,10.3562352 C61.9345819,10.0553832 62.2636928,9.662906 62.436019,9.18777713 L62.436019,7.752 L60.6076248,7.752 C59.9091782,7.752 59.3309485,7.91163575 58.8761355,8.23374101 C58.4204082,8.55490168 58.1895735,8.94360056 58.1895735,9.39558697 C58.1895735,9.82206946 58.335845,10.1630665 58.6265597,10.4214119 C58.9181885,10.6825911 59.3167785,10.812 59.8250721,10.812 L59.8250721,10.812 Z" id="Fill-10"></path>
                        </g>
                        <g id="Get-it-on" transform="translate(22.758294, 4.947246)" fill="#FFFFFF">
                            <path d="M0.00281798386,2.89390211 C0.00281798386,1.42917761 1.14410145,0.486977561 2.56327852,0.486977561 C3.51442425,0.486977561 4.13648544,0.919727168 4.5240739,1.44966022 L3.82933987,1.8336002 C3.56607224,1.48452424 3.10489683,1.21302071 2.56327852,1.21302071 C1.59796387,1.21302071 0.880833816,1.91030104 0.880833816,2.89390211 C0.880833816,3.86312177 1.59796387,4.57478351 2.56327852,4.57478351 C3.06101889,4.57478351 3.49979827,4.35862661 3.71918796,4.15641531 L3.71918796,3.43778077 L2.25613295,3.43778077 L2.25613295,2.71914623 L4.56795184,2.71914623 L4.56795184,4.45624586 C4.0926075,4.9656963 3.40472941,5.30736366 2.56327852,5.30736366 C1.14410145,5.30736366 0.00281798386,4.35208961 0.00281798386,2.89390211" id="Fill-1"></path>
                            <polyline id="Fill-2" points="5.67465095 5.23647563 5.67465095 0.557865592 9.063917 0.557865592 9.063917 1.28088766 6.54246986 1.28088766 6.54246986 2.48680082 9.01202393 2.48680082 9.01202393 3.20938468 6.54246986 3.20938468 6.54246986 4.51389176 9.063917 4.51389176 9.063917 5.23647563 5.67465095 5.23647563"></polyline>
                            <polyline id="Fill-3" points="11.3688462 5.23647563 11.3688462 1.28088766 9.89394133 1.28088766 9.89394133 0.557865592 13.6982195 0.557865592 13.6982195 1.28088766 12.2233147 1.28088766 12.2233147 5.23647563 11.3688462 5.23647563"></polyline>
                            <polygon id="Fill-4" points="16.7416421 0.557865592 17.5716665 0.557865592 17.5716665 5.23647563 16.7416421 5.23647563"></polygon>
                            <polyline id="Fill-5" points="19.9462205 5.23647563 19.9462205 1.28088766 18.4708595 1.28088766 18.4708595 0.557865592 22.2751377 0.557865592 22.2751377 1.28088766 20.8006891 1.28088766 20.8006891 5.23647563 19.9462205 5.23647563"></polyline>
                            <path d="M25.1110542,2.89738883 C25.1110542,1.50691802 26.1549585,0.486977561 27.6359428,0.486977561 C29.1086018,0.486977561 30.1603689,1.50691802 30.1603689,2.89738883 C30.1603689,4.28742321 29.1086018,5.30736366 27.6359428,5.30736366 C26.1549585,5.30736366 25.1110542,4.28742321 25.1110542,2.89738883 L25.1110542,2.89738883 Z M29.2611759,2.8617266 C29.2611759,1.90764207 28.6215585,1.19585787 27.6359413,1.19585787 C26.6429721,1.19585787 26.0102472,1.90764207 26.0102472,2.8617266 C26.0102472,3.80846869 26.6429721,4.52759532 27.6359413,4.52759532 C28.6215585,4.52759532 29.2611759,3.80846869 29.2611759,2.8617266 L29.2611759,2.8617266 Z" id="Fill-6"></path>
                            <polyline id="Fill-7" points="34.523043 5.23647563 31.9824392 1.89085536 31.9824392 5.23647563 31.1287306 5.23647563 31.1287306 0.557865592 32.0047852 0.557865592 34.4938564 3.79875721 34.4938564 0.557865592 35.348021 0.557865592 35.348021 5.23647563 34.523043 5.23647563"></polyline>
                        </g>
                    </g>
                </g>
            </g>
        </g>
    </g>
</svg>